<svg xmlns="http://www.w3.org/2000/svg" xmlns:xlink="http://www.w3.org/1999/xlink" width="1024" zoomAndPan="magnify" viewBox="0 0 768 576" height="768" preserveAspectRatio="xMidYMid meet" version="1.0"><defs><clipPath id="fbcf4553e4"><path d="M 0 13.921875 L 768 13.921875 L 768 562.171875 L 0 562.171875 Z M 0 13.921875 " clip-rule="nonzero"/></clipPath></defs><g clip-path="url(#fbcf4553e4)"><path fill="#000000" d="M 723.550781 13.921875 C 718.679688 13.921875 713.808594 13.921875 708.933594 13.921875 L 48.710938 13.921875 C 27.394531 13.921875 7.292969 26.101562 2.421875 48.035156 C 1.203125 57.171875 0.59375 66.308594 1.203125 75.445312 L 1.203125 501.253906 C 0.59375 511.609375 1.203125 521.964844 3.640625 531.710938 C 10.339844 551.8125 29.222656 562.171875 49.320312 562.171875 L 723.550781 562.171875 C 724.769531 562.171875 725.988281 561.5625 727.207031 560.953125 C 751.570312 558.515625 767.40625 538.414062 767.40625 513.4375 L 767.40625 61.433594 C 767.40625 35.851562 749.742188 14.527344 723.550781 13.921875 Z M 16.429688 57.78125 C 17.039062 38.894531 31.65625 28.539062 49.320312 28.539062 L 660.210938 28.539062 C 680.917969 28.539062 702.234375 27.929688 722.941406 28.539062 C 741.214844 29.148438 752.789062 43.160156 752.789062 60.824219 L 752.789062 113.824219 L 101.089844 113.824219 C 72.464844 113.824219 44.449219 112.605469 16.429688 113.824219 C 15.820312 95.546875 15.820312 76.664062 16.429688 57.78125 Z M 752.179688 517.089844 C 752.179688 532.929688 739.386719 545.722656 722.941406 546.332031 C 722.335938 546.332031 721.726562 546.332031 721.726562 546.332031 L 52.367188 546.332031 C 39.574219 546.332031 26.785156 544.503906 20.085938 531.710938 C 15.210938 522.574219 16.429688 512.21875 16.429688 501.863281 L 16.429688 135.753906 C 16.429688 133.925781 16.429688 131.488281 16.429688 129.660156 L 667.519531 129.660156 C 696.144531 129.660156 724.160156 130.878906 752.179688 129.660156 L 752.179688 511 C 752.179688 512.828125 752.179688 515.265625 752.179688 517.089844 Z M 752.179688 517.089844 " fill-opacity="1" fill-rule="nonzero"/></g><path fill="#000000" d="M 67.59375 78.492188 C 67.59375 77.882812 66.984375 77.882812 67.59375 78.492188 Z M 67.59375 78.492188 " fill-opacity="1" fill-rule="nonzero"/><path fill="#000000" d="M 97.4375 92.503906 C 101.699219 87.628906 103.527344 82.148438 103.527344 75.445312 C 103.527344 74.226562 103.527344 73.617188 103.527344 72.398438 C 102.308594 62.652344 95.609375 54.734375 86.472656 51.078125 C 76.726562 47.425781 65.15625 50.46875 58.457031 58.390625 C 49.320312 69.355469 50.539062 85.191406 60.890625 94.9375 C 71.855469 104.078125 87.691406 102.859375 97.4375 92.503906 Z M 88.300781 73.617188 C 88.300781 73.617188 88.300781 74.226562 88.300781 73.617188 C 88.300781 74.226562 88.300781 74.226562 88.300781 74.226562 C 88.300781 74.226562 88.300781 74.226562 88.300781 73.617188 Z M 66.984375 73.617188 C 66.984375 73.007812 66.984375 73.007812 66.984375 72.398438 C 66.984375 71.789062 67.59375 71.183594 67.59375 69.964844 L 68.199219 68.746094 L 68.808594 67.527344 C 69.417969 66.917969 70.027344 66.308594 70.636719 65.699219 L 71.246094 65.699219 C 70.636719 66.308594 71.246094 65.699219 71.855469 65.699219 C 72.464844 65.089844 73.683594 65.089844 74.292969 64.480469 C 74.292969 64.480469 72.464844 65.089844 73.683594 64.480469 L 74.902344 63.871094 L 76.117188 63.871094 C 76.117188 63.871094 76.117188 63.871094 76.726562 63.871094 C 76.726562 63.871094 77.335938 63.871094 77.335938 63.871094 L 79.164062 63.871094 L 82.210938 64.480469 C 83.425781 65.089844 83.425781 65.089844 83.425781 65.089844 L 84.644531 66.308594 C 84.035156 65.699219 83.425781 65.699219 84.035156 66.308594 L 85.863281 68.136719 C 85.863281 68.746094 86.472656 68.746094 86.472656 69.355469 L 87.082031 70.574219 C 87.082031 71.183594 87.082031 71.789062 87.691406 71.789062 C 87.691406 72.398438 87.082031 73.007812 87.082031 73.617188 C 87.082031 74.226562 87.082031 74.226562 87.082031 74.835938 C 87.082031 75.445312 86.472656 76.664062 86.472656 77.273438 C 86.472656 77.273438 86.472656 77.882812 86.472656 77.882812 C 86.472656 77.882812 86.472656 77.882812 86.472656 78.492188 C 85.863281 79.101562 85.253906 80.320312 85.253906 80.929688 C 85.253906 80.929688 84.644531 81.539062 84.644531 81.539062 C 84.644531 81.539062 84.035156 82.148438 84.035156 82.148438 L 83.425781 82.148438 C 82.820312 82.753906 82.820312 82.753906 83.425781 82.148438 C 82.820312 82.753906 82.210938 82.753906 82.210938 83.363281 L 81.601562 83.972656 L 78.554688 85.191406 C 77.945312 85.191406 77.945312 85.191406 77.335938 85.191406 L 74.902344 85.191406 C 74.292969 85.191406 73.683594 85.191406 73.683594 84.582031 L 72.464844 83.972656 C 71.246094 83.363281 73.074219 83.972656 73.074219 83.972656 C 73.074219 83.972656 71.246094 82.757812 71.246094 82.757812 L 70.027344 82.148438 C 70.027344 82.148438 68.199219 80.320312 68.199219 80.320312 L 67.59375 79.710938 L 67.59375 78.492188 C 67.59375 78.492188 67.59375 79.101562 67.59375 79.101562 C 67.59375 79.101562 66.984375 77.273438 66.984375 76.664062 Z M 66.984375 73.617188 " fill-opacity="1" fill-rule="nonzero"/><path fill="#000000" d="M 158.34375 91.285156 C 161.996094 87.019531 163.824219 81.539062 164.433594 76.054688 C 164.433594 75.445312 164.433594 75.445312 164.433594 74.835938 C 164.433594 74.835938 164.433594 74.226562 164.433594 74.226562 C 164.433594 63.261719 157.734375 53.515625 147.378906 49.859375 C 137.632812 46.207031 126.0625 49.25 119.363281 57.171875 C 110.226562 68.136719 111.445312 83.972656 121.796875 93.722656 C 132.761719 103.46875 148.597656 102.25 158.34375 91.285156 Z M 128.5 73.617188 C 128.5 73.007812 128.5 73.007812 128.5 72.398438 C 128.5 71.789062 129.105469 71.183594 129.105469 69.964844 L 130.324219 67.527344 C 130.933594 66.917969 131.542969 66.308594 132.152344 65.699219 L 132.761719 65.699219 C 132.761719 65.699219 132.761719 65.699219 133.371094 65.699219 C 133.980469 65.089844 135.199219 65.089844 135.808594 64.480469 C 135.808594 64.480469 133.980469 65.089844 135.199219 64.480469 L 136.417969 63.871094 L 137.632812 63.871094 C 137.632812 63.871094 137.632812 63.871094 138.242188 63.871094 C 138.242188 63.871094 138.851562 63.871094 138.851562 63.871094 L 140.070312 63.871094 L 143.117188 64.480469 C 144.332031 65.089844 144.332031 65.089844 144.332031 65.089844 C 144.332031 65.089844 144.941406 65.089844 144.941406 65.699219 C 144.941406 65.699219 144.941406 65.699219 145.550781 66.308594 L 147.378906 68.136719 C 147.378906 68.746094 147.988281 68.746094 147.988281 69.355469 L 148.597656 70.574219 C 149.207031 71.789062 149.207031 72.398438 149.207031 73.007812 C 149.207031 73.007812 149.207031 73.007812 149.207031 73.617188 C 149.207031 73.617188 149.207031 73.617188 149.207031 74.226562 C 149.207031 74.835938 149.207031 74.835938 149.207031 75.445312 C 149.207031 76.054688 148.597656 77.273438 148.597656 77.882812 C 148.597656 77.882812 148.597656 78.492188 148.597656 78.492188 C 148.597656 78.492188 148.597656 78.492188 148.597656 79.101562 L 147.378906 81.539062 C 147.378906 81.539062 146.769531 82.148438 146.769531 82.148438 L 146.160156 82.753906 C 145.550781 83.363281 145.550781 83.363281 146.160156 82.753906 C 145.550781 83.363281 144.941406 83.363281 144.941406 83.972656 L 144.332031 84.582031 L 140.679688 85.191406 C 140.070312 85.191406 140.070312 85.191406 139.460938 85.191406 L 135.199219 85.191406 L 133.980469 84.582031 C 132.761719 83.972656 134.589844 84.582031 134.589844 84.582031 C 134.589844 84.582031 132.761719 83.363281 132.761719 83.363281 C 132.761719 83.363281 132.152344 82.757812 131.542969 82.757812 C 131.542969 82.757812 129.714844 80.929688 129.714844 80.929688 L 129.105469 80.320312 L 129.714844 79.710938 L 129.714844 79.101562 C 129.714844 78.492188 129.105469 78.492188 129.714844 79.101562 C 129.714844 78.492188 129.105469 77.882812 129.105469 77.273438 C 129.105469 77.273438 129.105469 76.664062 129.105469 76.054688 C 128.5 75.445312 128.5 74.226562 128.5 73.617188 Z M 128.5 73.617188 " fill-opacity="1" fill-rule="nonzero"/><path fill="#000000" d="M 128.5 73.617188 C 129.105469 71.789062 128.5 73.007812 128.5 73.617188 Z M 128.5 73.617188 " fill-opacity="1" fill-rule="nonzero"/><path fill="#000000" d="M 221.074219 92.503906 C 225.339844 87.628906 227.167969 82.148438 227.167969 75.445312 C 227.167969 74.226562 227.167969 73.617188 227.167969 72.398438 C 225.339844 62.652344 219.25 54.734375 210.113281 51.078125 C 200.367188 47.425781 188.796875 50.46875 182.097656 58.390625 C 172.960938 69.355469 174.179688 85.191406 184.53125 94.9375 C 194.886719 104.6875 211.332031 102.859375 221.074219 92.503906 Z M 211.941406 73.617188 C 211.941406 73.617188 211.941406 74.226562 211.941406 73.617188 C 211.941406 74.226562 211.941406 74.226562 211.941406 74.226562 C 211.941406 74.226562 211.941406 74.226562 211.941406 73.617188 Z M 190.621094 73.617188 C 190.621094 73.617188 190.621094 73.007812 190.621094 72.398438 C 190.621094 71.789062 191.230469 70.574219 191.230469 69.964844 L 192.449219 67.527344 C 193.058594 66.917969 193.667969 66.308594 194.277344 65.699219 L 194.886719 65.699219 C 194.277344 66.308594 194.886719 65.699219 195.496094 65.699219 C 196.105469 65.089844 197.324219 65.089844 197.929688 64.480469 C 197.929688 64.480469 196.105469 65.089844 197.324219 64.480469 L 198.539062 63.871094 L 199.757812 63.871094 C 199.757812 63.871094 199.757812 63.871094 200.367188 63.871094 C 200.367188 63.871094 200.976562 63.871094 200.976562 63.871094 L 203.414062 63.871094 L 206.457031 64.480469 C 207.675781 65.089844 207.675781 65.089844 207.675781 65.089844 L 208.285156 65.699219 C 208.285156 65.699219 208.285156 65.699219 208.894531 66.308594 L 210.722656 68.136719 C 210.722656 68.746094 211.332031 68.746094 211.332031 69.355469 C 211.332031 69.964844 211.941406 69.964844 211.941406 70.574219 C 211.941406 71.183594 212.546875 71.789062 212.546875 72.398438 C 212.546875 73.007812 211.941406 73.617188 211.941406 74.226562 C 211.941406 74.835938 211.941406 74.835938 211.941406 75.445312 C 211.941406 76.054688 211.332031 77.273438 211.332031 77.882812 C 211.332031 77.882812 211.332031 77.882812 211.332031 78.492188 C 210.722656 79.101562 210.113281 80.320312 210.113281 80.929688 C 210.113281 80.929688 209.503906 81.539062 209.503906 81.539062 C 209.503906 81.539062 208.894531 82.148438 208.894531 82.148438 C 208.285156 82.753906 208.285156 82.753906 208.894531 82.148438 C 208.285156 82.753906 207.675781 82.753906 207.675781 83.363281 L 207.066406 83.972656 L 202.195312 85.191406 C 201.585938 85.191406 201.585938 85.191406 200.976562 85.191406 L 198.539062 85.191406 L 197.324219 84.582031 L 196.105469 83.972656 C 194.886719 83.972656 196.714844 83.972656 196.714844 83.972656 C 196.714844 83.972656 194.886719 82.757812 194.886719 82.757812 L 193.667969 82.148438 C 193.667969 82.148438 192.449219 80.929688 191.839844 80.320312 L 191.230469 79.101562 L 191.839844 78.492188 C 191.839844 77.882812 191.230469 76.664062 191.230469 76.054688 L 191.230469 74.835938 C 190.621094 74.835938 190.621094 74.226562 190.621094 73.617188 Z M 190.621094 73.617188 " fill-opacity="1" fill-rule="nonzero"/><path fill="#000000" d="M 202.195312 85.191406 C 202.195312 84.582031 200.976562 85.191406 202.195312 85.191406 Z M 202.195312 85.191406 " fill-opacity="1" fill-rule="nonzero"/><path fill="#000000" d="M 190.621094 73.617188 C 191.230469 71.789062 190.621094 73.007812 190.621094 73.617188 Z M 190.621094 73.617188 " fill-opacity="1" fill-rule="nonzero"/><path fill="#000000" d="M 473.835938 259.414062 C 467.746094 252.105469 456.78125 263.070312 462.875 270.378906 L 521.953125 337.996094 L 462.875 405.613281 C 456.175781 412.925781 467.136719 423.890625 473.835938 416.578125 L 537.789062 343.480469 C 540.832031 340.433594 540.832031 335.558594 537.789062 332.515625 Z M 473.835938 259.414062 " fill-opacity="1" fill-rule="nonzero"/><path fill="#000000" d="M 294.773438 259.414062 L 231.429688 332.515625 C 228.382812 335.558594 228.382812 340.433594 231.429688 343.480469 L 294.773438 416.578125 C 301.472656 423.890625 311.824219 412.925781 305.734375 405.613281 L 246.65625 337.996094 L 305.734375 270.378906 C 312.433594 263.070312 301.472656 252.105469 294.773438 259.414062 Z M 294.773438 259.414062 " fill-opacity="1" fill-rule="nonzero"/><path fill="#000000" d="M 414.148438 260.632812 L 350.804688 388.558594 L 341.671875 406.832031 C 337.40625 415.359375 350.195312 423.28125 355.070312 414.75 L 419.019531 286.828125 L 428.15625 268.550781 C 431.203125 260.023438 418.410156 252.105469 414.148438 260.632812 Z M 414.148438 260.632812 " fill-opacity="1" fill-rule="nonzero"/></svg>